<svg width="38" height="50" viewBox="0 0 38 50" fill="none" xmlns="http://www.w3.org/2000/svg">
<path d="M19 0C8.52625 0 0 7.98133 0 17.7857C0 30.169 16.53 47.4433 17.2425 48.177C18.2026 49.1728 19.7974 49.1728 20.7575 48.177C21.47 47.4433 38 30.169 38 17.7857C38 7.98133 29.4737 0 19 0ZM19 43.2859C13.8225 37.4833 4.75 25.6558 4.75 17.7857C4.75 10.4269 11.1388 4.44642 19 4.44642C26.8612 4.44642 33.25 10.4269 33.25 17.7857C33.25 26.3006 23.1562 38.5949 19 43.2859Z" fill="#B20000"/>
<path fill-rule="evenodd" clip-rule="evenodd" d="M16.6667 13.5556C16.6667 13.143 16.8306 12.7473 17.1223 12.4556C17.414 12.1639 17.8097 12 18.2222 12H19.7778C20.1903 12 20.586 12.1639 20.8777 12.4556C21.1694 12.7473 21.3333 13.143 21.3333 13.5556V16.6667H24.4444C24.857 16.6667 25.2527 16.8306 25.5444 17.1223C25.8361 17.414 26 17.8097 26 18.2222V19.7778C26 20.1903 25.8361 20.586 25.5444 20.8777C25.2527 21.1694 24.857 21.3333 24.4444 21.3333H21.3333V24.4444C21.3333 24.857 21.1694 25.2527 20.8777 25.5444C20.586 25.8361 20.1903 26 19.7778 26H18.2222C17.8097 26 17.414 25.8361 17.1223 25.5444C16.8306 25.2527 16.6667 24.857 16.6667 24.4444V21.3333H13.5556C13.143 21.3333 12.7473 21.1694 12.4556 20.8777C12.1639 20.586 12 20.1903 12 19.7778V18.2222C12 17.8097 12.1639 17.414 12.4556 17.1223C12.7473 16.8306 13.143 16.6667 13.5556 16.6667H16.6667V13.5556Z" fill="#B20000"/>
</svg>
