<svg width="38" height="38" viewBox="0 0 38 38" fill="none" xmlns="http://www.w3.org/2000/svg">
<path d="M13.7692 33.3846H2V31.9671C2.01676 30.3859 2.35127 28.8243 2.98363 27.375C3.61598 25.9257 4.53328 24.6184 5.68099 23.5307C6.82871 22.443 8.1834 21.5972 9.66453 21.0435C11.1457 20.4898 12.723 20.2396 14.3028 20.3077C15.868 20.3803 17.403 20.7647 18.8177 21.4383C20.2324 22.112 21.4983 23.0614 22.5412 24.2308M36 22.9231L25.5385 36L20.3077 32.0769M13.7692 15.0769C15.5033 15.0769 17.1664 14.3881 18.3926 13.1619C19.6188 11.9357 20.3077 10.2726 20.3077 8.53846C20.3077 6.80435 19.6188 5.14127 18.3926 3.91507C17.1664 2.68887 15.5033 2 13.7692 2C12.0351 2 10.372 2.68887 9.14584 3.91507C7.91964 5.14127 7.23077 6.80435 7.23077 8.53846C7.23077 10.2726 7.91964 11.9357 9.14584 13.1619C10.372 14.3881 12.0351 15.0769 13.7692 15.0769Z" stroke="#B20000" stroke-width="4" stroke-linecap="round" stroke-linejoin="round"/>
</svg>
