<svg width="52" height="69" viewBox="0 0 52 69" fill="none" xmlns="http://www.w3.org/2000/svg">
<path d="M0 68.5V23H9.75V16.5C9.75 12.0042 11.3349 8.17242 14.5048 5.00475C17.6746 1.83709 21.5063 0.252169 26 0.250002C30.4937 0.247836 34.3265 1.83275 37.4985 5.00475C40.6705 8.17675 42.2543 12.0085 42.25 16.5V23H52V68.5H0ZM6.5 62H45.5V29.5H6.5V62ZM26 52.25C27.7875 52.25 29.3183 51.6141 30.5923 50.3423C31.8663 49.0704 32.5022 47.5397 32.5 45.75C32.4978 43.9603 31.8619 42.4307 30.5923 41.161C29.3226 39.8913 27.7918 39.2543 26 39.25C24.2082 39.2457 22.6785 39.8827 21.411 41.161C20.1435 42.4393 19.5065 43.969 19.5 45.75C19.4935 47.531 20.1305 49.0618 21.411 50.3423C22.6915 51.6228 24.2212 52.2587 26 52.25ZM16.25 23H35.75V16.5C35.75 13.7917 34.8021 11.4896 32.9062 9.59375C31.0104 7.69792 28.7083 6.75 26 6.75C23.2917 6.75 20.9896 7.69792 19.0938 9.59375C17.1979 11.4896 16.25 13.7917 16.25 16.5V23Z" fill="#E8E8E8"/>
</svg>
