<svg width="79" height="62" viewBox="0 0 79 62" fill="none" xmlns="http://www.w3.org/2000/svg">
<path d="M31 33.2139C48.0498 33.2139 61.9997 44.2855 62 53.1426C62 55.4916 61.0673 57.7452 59.4062 59.4062C57.7452 61.0673 55.4916 62 53.1426 62H8.85742C6.50836 62 4.25479 61.0673 2.59375 59.4062C0.932714 57.7452 0 55.4916 0 53.1426C0.000288386 44.2855 13.9502 33.2139 31 33.2139ZM31 39.8574C23.87 39.8574 17.4305 42.1868 12.8779 45.3223C7.9629 48.7186 6.64278 51.96 6.64258 53.1426C6.64258 53.7298 6.87576 54.2937 7.29102 54.709C7.70627 55.1242 8.27016 55.3574 8.85742 55.3574H53.1426C53.7298 55.3574 54.2937 55.1242 54.709 54.709C55.1242 54.2937 55.3574 53.7298 55.3574 53.1426C55.3572 51.96 54.0415 48.7142 49.1221 45.3223C44.5695 42.1868 38.1256 39.8574 31 39.8574ZM31 0C35.1109 5.05128e-07 39.0531 1.63323 41.96 4.54004C44.8668 7.44685 46.5 11.3891 46.5 15.5C46.5 19.6109 44.8668 23.5531 41.96 26.46C39.0531 29.3668 35.1109 31 31 31C26.8891 31 22.9469 29.3668 20.04 26.46C17.1332 23.5531 15.5 19.6109 15.5 15.5C15.5 11.3891 17.1332 7.44685 20.04 4.54004C22.9469 1.63323 26.8891 0 31 0ZM31 6.64258C28.6509 6.64258 26.3983 7.57627 24.7373 9.2373C23.0763 10.8983 22.1426 13.1509 22.1426 15.5C22.1426 17.8491 23.0763 20.1017 24.7373 21.7627C26.3983 23.4237 28.6509 24.3574 31 24.3574C33.3491 24.3574 35.6017 23.4237 37.2627 21.7627C38.9237 20.1017 39.8574 17.8491 39.8574 15.5C39.8574 13.1509 38.9237 10.8983 37.2627 9.2373C35.6017 7.57627 33.3491 6.64258 31 6.64258Z" fill="#B20000"/>
<path d="M31 33.2139C48.0498 33.2139 61.9997 44.2855 62 53.1426C62 55.4916 61.0673 57.7452 59.4062 59.4062C57.7452 61.0673 55.4916 62 53.1426 62H8.85742C6.50836 62 4.25479 61.0673 2.59375 59.4062C0.932714 57.7452 0 55.4916 0 53.1426C0.000288386 44.2855 13.9502 33.2139 31 33.2139ZM31 39.8574C23.87 39.8574 17.4305 42.1868 12.8779 45.3223C7.9629 48.7186 6.64278 51.96 6.64258 53.1426C6.64258 53.7298 6.87576 54.2937 7.29102 54.709C7.70627 55.1242 8.27016 55.3574 8.85742 55.3574H53.1426C53.7298 55.3574 54.2937 55.1242 54.709 54.709C55.1242 54.2937 55.3574 53.7298 55.3574 53.1426C55.3572 51.96 54.0415 48.7142 49.1221 45.3223C44.5695 42.1868 38.1256 39.8574 31 39.8574ZM31 0C35.1109 5.05128e-07 39.0531 1.63323 41.96 4.54004C44.8668 7.44685 46.5 11.3891 46.5 15.5C46.5 19.6109 44.8668 23.5531 41.96 26.46C39.0531 29.3668 35.1109 31 31 31C26.8891 31 22.9469 29.3668 20.04 26.46C17.1332 23.5531 15.5 19.6109 15.5 15.5C15.5 11.3891 17.1332 7.44685 20.04 4.54004C22.9469 1.63323 26.8891 0 31 0ZM31 6.64258C28.6509 6.64258 26.3983 7.57627 24.7373 9.2373C23.0763 10.8983 22.1426 13.1509 22.1426 15.5C22.1426 17.8491 23.0763 20.1017 24.7373 21.7627C26.3983 23.4237 28.6509 24.3574 31 24.3574C33.3491 24.3574 35.6017 23.4237 37.2627 21.7627C38.9237 20.1017 39.8574 17.8491 39.8574 15.5C39.8574 13.1509 38.9237 10.8983 37.2627 9.2373C35.6017 7.57627 33.3491 6.64258 31 6.64258Z" stroke="#B20000"/>
<path d="M76 3H57V20.4462L67.0588 30L76 20.4462V3Z" stroke="#B20000" stroke-width="5"/>
</svg>
