<svg width="64" height="64" viewBox="0 0 64 64" fill="none" xmlns="http://www.w3.org/2000/svg">
<path d="M32 0.5C36.3792 0.5 40.4745 1.33191 44.291 2.99316C48.1187 4.65931 51.4438 6.90516 54.2705 9.72949C57.0971 12.5537 59.3436 15.879 61.0098 19.709C62.6711 23.5279 63.5023 27.6233 63.5 32C63.4976 36.377 62.6665 40.4728 61.0098 44.292C59.3485 48.1215 57.1015 51.4455 54.2705 54.2695C51.4389 57.0942 48.114 59.3412 44.291 61.0098C40.4797 62.6731 36.3846 63.5046 32.001 63.5H32C24.6433 63.5 18.1453 61.2706 12.4873 56.8096C6.82619 52.346 3.15574 46.6487 1.46387 39.7041L1.46094 39.6934L1.40332 39.4229C1.30633 38.8009 1.46686 38.2347 1.90137 37.6924C2.4059 37.0627 3.08318 36.6915 3.9707 36.585H3.97266C4.81465 36.4797 5.55886 36.637 6.22656 37.0479C6.88338 37.452 7.34616 38.059 7.61035 38.9033C9.06342 44.3367 12.0594 48.7805 16.5859 52.2207C21.1182 55.6652 26.2621 57.3887 32 57.3887C39.0637 57.3887 45.0738 54.9237 50 50C54.9262 45.0762 57.391 39.066 57.3887 32C57.3863 24.9342 54.9214 18.9254 50 14.0039C45.2324 9.23629 39.4432 6.77291 32.6602 6.61914L32 6.61133C27.8303 6.61133 23.9269 7.57914 20.2979 9.51465C16.6748 11.447 13.6253 14.1047 11.1523 17.4824L10.5693 18.2773H17.7773C18.6585 18.2773 19.3746 18.571 19.959 19.1553C20.5433 19.7396 20.8351 20.454 20.833 21.332C20.8309 22.2115 20.5375 22.9281 19.9541 23.5156C19.3728 24.101 18.6601 24.3928 17.7803 24.3887H3.55566C2.67446 24.3887 1.95978 24.0956 1.37793 23.5117C0.868086 23 0.580127 22.3883 0.514648 21.6543L0.5 21.332V7.11133C0.5 6.23012 0.79308 5.51544 1.37695 4.93359C1.96179 4.35082 2.67729 4.05776 3.55664 4.05566C4.43422 4.05359 5.15019 4.34647 5.7373 4.93359C6.32406 5.52051 6.61538 6.23426 6.61133 7.1084V13.3408L7.50195 12.2227C10.4771 8.48914 14.1067 5.60376 18.3945 3.5625C22.6837 1.52063 27.217 0.5 32 0.5ZM32.001 14.7227C32.8785 14.7206 33.5945 15.0125 34.1816 15.5996C34.7687 16.1867 35.0598 16.9009 35.0557 17.7754V30.7852L44.0908 39.8203C44.6396 40.3691 44.9218 41.067 44.9219 41.9551C44.9219 42.8434 44.6397 43.5419 44.0908 44.0908C43.5419 44.6397 42.8434 44.9219 41.9551 44.9219C41.067 44.9218 40.3691 44.6396 39.8203 44.0908L29.8643 34.1357C29.5539 33.8254 29.3261 33.4818 29.1748 33.1045C29.0208 32.7203 28.9443 32.3236 28.9443 31.9111V17.7773C28.9444 16.8964 29.2376 16.1823 29.8213 15.6006C30.4061 15.0178 31.1216 14.7248 32.001 14.7227Z" fill="#B20000" stroke="#B20000"/>
</svg>
