<svg width="26" height="26" viewBox="0 0 26 26" fill="none" xmlns="http://www.w3.org/2000/svg">
<path d="M6.64355 10.6157C6.64355 9.75598 6.98499 8.93151 7.59275 8.32363C8.20051 7.71574 9.0248 7.37424 9.8843 7.37424H20.4146C20.8402 7.37424 21.2616 7.45808 21.6548 7.62098C22.048 7.78387 22.4052 8.02263 22.7062 8.32363C23.0071 8.62462 23.2458 8.98195 23.4087 9.37522C23.5715 9.76849 23.6554 10.19 23.6554 10.6157V21.1481C23.6554 21.5738 23.5715 21.9953 23.4087 22.3886C23.2458 22.7818 23.0071 23.1392 22.7062 23.4402C22.4052 23.7412 22.048 23.9799 21.6548 24.1428C21.2616 24.3057 20.8402 24.3896 20.4146 24.3896H9.8843C9.45872 24.3896 9.03731 24.3057 8.64412 24.1428C8.25094 23.9799 7.89368 23.7412 7.59275 23.4402C7.29182 23.1392 7.0531 22.7818 6.89024 22.3886C6.72738 21.9953 6.64355 21.5738 6.64355 21.1481V10.6157Z" stroke="#777777" stroke-width="3.14286" stroke-linecap="round" stroke-linejoin="round"/>
<path d="M3.00803 19.2108C2.63499 18.9989 2.3247 18.6919 2.10871 18.3211C1.89273 17.9503 1.77873 17.5289 1.77832 17.0997V4.94593C1.77832 3.60901 2.87194 2.51517 4.20858 2.51517H16.3599C17.2712 2.51517 17.767 2.98309 18.1826 3.73055" stroke="#777777" stroke-width="3.14286" stroke-linecap="round" stroke-linejoin="round"/>
</svg>
