<svg width="31" height="31" viewBox="0 0 31 31" fill="none" xmlns="http://www.w3.org/2000/svg">
<path d="M7.83936 11.7208C7.83936 10.6891 8.24908 9.69978 8.97839 8.97032C9.7077 8.24086 10.6969 7.83105 11.7283 7.83105H24.3646C24.8753 7.83105 25.381 7.93167 25.8528 8.12714C26.3247 8.32262 26.7534 8.60913 27.1145 8.97032C27.4756 9.33151 27.7621 9.76031 27.9575 10.2322C28.1529 10.7042 28.2535 11.21 28.2535 11.7208V24.3597C28.2535 24.8705 28.1529 25.3763 27.9575 25.8483C27.7621 26.3202 27.4756 26.749 27.1145 27.1102C26.7534 27.4714 26.3247 27.7579 25.8528 27.9534C25.381 28.1488 24.8753 28.2494 24.3646 28.2494H11.7283C11.2176 28.2494 10.7119 28.1488 10.24 27.9534C9.76821 27.7579 9.3395 27.4714 8.97839 27.1102C8.61727 26.749 8.33082 26.3202 8.13538 25.8483C7.93994 25.3763 7.83936 24.8705 7.83936 24.3597V11.7208Z" stroke="#777777" stroke-width="4" stroke-linecap="round" stroke-linejoin="round"/>
<path d="M3.4776 22.0348C3.02995 21.7804 2.65761 21.412 2.39843 20.9671C2.13924 20.5221 2.00245 20.0164 2.00195 19.5015V4.91691C2.00195 3.31261 3.31429 2 4.91826 2H19.4998C20.5934 2 21.1883 2.56151 21.687 3.45846" stroke="#777777" stroke-width="4" stroke-linecap="round" stroke-linejoin="round"/>
</svg>
