<svg width="85" height="73" viewBox="0 0 85 73" fill="none" xmlns="http://www.w3.org/2000/svg">
<path d="M64.749 70.6359C64.749 63.0598 54.7137 56.9194 42.3387 56.9194C29.9637 56.9194 19.9283 63.0598 19.9283 70.6359M82.6773 56.9194C82.6773 51.2956 77.1464 46.4628 69.2311 44.3459M2 56.9194C2 51.2956 7.53088 46.4628 15.4462 44.3459M69.2311 25.9931C70.559 24.7956 71.6417 23.3421 72.4169 21.7163C73.1921 20.0904 73.6446 18.3242 73.7484 16.5194C73.8521 14.7145 73.605 12.9065 73.0213 11.1993C72.4377 9.49219 71.5289 7.91961 70.3473 6.57203C69.1657 5.22445 67.7346 4.12846 66.1363 3.3471C64.538 2.56573 62.8041 2.11441 61.0342 2.01908C59.2643 1.92375 57.4934 2.18631 55.8233 2.79164C54.1532 3.39697 52.6169 4.33314 51.3028 5.5463M15.4462 25.9931C12.8121 23.5614 11.2284 20.1651 11.0411 16.5461C10.8538 12.927 12.0781 9.37949 14.4465 6.67832C16.815 3.97716 20.1351 2.34191 23.6816 2.12981C27.2282 1.9177 30.7129 3.14596 33.3745 5.5463M42.3387 43.2028C38.7725 43.2028 35.3524 41.7577 32.8307 39.1853C30.3091 36.613 28.8924 33.1241 28.8924 29.4863C28.8924 25.8484 30.3091 22.3595 32.8307 19.7872C35.3524 17.2148 38.7725 15.7697 42.3387 15.7697C45.9048 15.7697 49.3249 17.2148 51.8466 19.7872C54.3682 22.3595 55.7849 25.8484 55.7849 29.4863C55.7849 33.1241 54.3682 36.613 51.8466 39.1853C49.3249 41.7577 45.9048 43.2028 42.3387 43.2028Z" stroke="#E8E8E8" stroke-opacity="0.5" stroke-width="4" stroke-linecap="round" stroke-linejoin="round"/>
</svg>
