<svg width="50" height="60" viewBox="0 0 50 60" fill="none" xmlns="http://www.w3.org/2000/svg">
<path d="M25.0361 15.7743C26.6128 15.7743 28.1541 15.3117 29.4652 14.445C30.7762 13.5784 31.798 12.3466 32.4014 10.9054C33.0048 9.46422 33.1626 7.87838 32.855 6.34843C32.5474 4.81847 31.7882 3.41312 30.6732 2.31009C29.5583 1.20705 28.1378 0.455879 26.5914 0.151552C25.0449 -0.152774 23.442 0.00341739 21.9853 0.600375C20.5285 1.19733 19.2834 2.20825 18.4075 3.50528C17.5315 4.80231 17.0639 6.3272 17.0639 7.88713C17.0639 9.97892 17.9038 11.985 19.3989 13.4642C20.894 14.9433 22.9217 15.7743 25.0361 15.7743ZM25.0361 3.15485C25.9821 3.15485 26.9069 3.4324 27.6935 3.95239C28.4801 4.47237 29.0932 5.21146 29.4553 6.07617C29.8173 6.94088 29.912 7.89238 29.7274 8.81035C29.5429 9.72832 29.0873 10.5715 28.4184 11.2334C27.7494 11.8952 26.8971 12.3459 25.9692 12.5285C25.0414 12.7111 24.0796 12.6174 23.2056 12.2592C22.3315 11.901 21.5845 11.2945 21.0589 10.5162C20.5333 9.73802 20.2528 8.82308 20.2528 7.88713C20.2528 6.63205 20.7567 5.42838 21.6538 4.5409C22.5508 3.65343 23.7675 3.15485 25.0361 3.15485ZM48.6549 32.9734L36.6409 19.497C35.8928 18.6576 34.9728 17.9853 33.9419 17.5247C32.911 17.0642 31.7929 16.826 30.6617 16.8259H19.4104C18.2795 16.8256 17.1614 17.0635 16.1306 17.5236C15.0997 17.9836 14.1795 18.6554 13.4313 19.4944L1.41722 32.9734C0.970884 33.4109 0.616007 33.931 0.372849 34.5041C0.129691 35.0772 0.00301435 35.6921 5.32131e-05 36.3137C-0.00592706 37.569 0.492373 38.7752 1.38533 39.667C2.27829 40.5588 3.49276 41.0631 4.76158 41.069C6.03039 41.075 7.24962 40.582 8.15104 39.6985L13.7608 35.2476L8.94294 53.3485C8.43645 54.4872 8.40357 55.7774 8.8514 56.9399C9.29924 58.1024 10.1918 59.0437 11.3358 59.56C12.4799 60.0764 13.7834 60.1262 14.9644 59.6988C16.1453 59.2714 17.1087 58.4011 17.6459 57.2763L25.0361 44.6937L32.4263 57.2895C32.9635 58.4143 33.9268 59.2846 35.1077 59.712C36.2887 60.1394 37.5922 60.0895 38.7363 59.5732C39.8804 59.0568 40.7729 58.1156 41.2207 56.9531C41.6685 55.7906 41.6357 54.5004 41.1292 53.3617L36.3113 35.2555L41.9211 39.6985C42.8279 40.5514 44.0365 41.0188 45.2876 41.0005C46.5387 40.9821 47.7327 40.4795 48.6136 39.6004C49.4945 38.7213 49.9922 37.5358 49.9999 36.2979C50.0076 35.0601 49.5248 33.8685 48.6549 32.9787V32.9734ZM46.3616 37.3955C46.2135 37.5422 46.0377 37.6585 45.8441 37.7379C45.6505 37.8173 45.4431 37.8581 45.2335 37.8581C45.024 37.8581 44.8165 37.8173 44.6229 37.7379C44.4294 37.6585 44.2535 37.5422 44.1055 37.3955C44.0653 37.3535 44.0218 37.3148 43.9752 37.2798L34.5389 29.7923C34.2773 29.5846 33.9562 29.4638 33.6213 29.447C33.2863 29.4302 32.9546 29.5184 32.6732 29.699C32.3918 29.8795 32.1751 30.1432 32.054 30.4526C31.9328 30.762 31.9134 31.1013 31.9984 31.4223L38.0759 54.2766C38.1027 54.3663 38.1355 54.4541 38.1742 54.5395C38.3528 54.9188 38.3719 55.3528 38.2271 55.746C38.0823 56.1392 37.7856 56.4594 37.4022 56.6361C37.0188 56.8129 36.5801 56.8317 36.1827 56.6885C35.7853 56.5453 35.4616 56.2517 35.2829 55.8724C35.2637 55.8289 35.2415 55.7867 35.2165 55.7462L26.4152 40.7502C26.2751 40.5111 26.0739 40.3127 25.8319 40.1748C25.5898 40.0368 25.3154 39.9642 25.0361 39.9642C24.7567 39.9642 24.4823 40.0368 24.2403 40.1748C23.9982 40.3127 23.797 40.5111 23.6569 40.7502L14.8556 55.7488C14.8306 55.7894 14.8084 55.8315 14.7892 55.875C14.6105 56.2543 14.2869 56.5479 13.8894 56.6911C13.492 56.8344 13.0533 56.8155 12.6699 56.6388C12.2865 56.462 11.9898 56.1418 11.845 55.7486C11.7002 55.3554 11.7193 54.9214 11.8979 54.5421C11.9366 54.4567 11.9694 54.3689 11.9963 54.2792L18.0737 31.4249C18.1574 31.1052 18.1376 30.7675 18.017 30.4595C17.8964 30.1514 17.681 29.8887 17.4014 29.7082C17.1432 29.54 16.8416 29.4487 16.5324 29.4453C16.1691 29.445 15.8166 29.5674 15.5333 29.7923L6.09688 37.2798C6.05033 37.3148 6.00678 37.3535 5.96667 37.3955C5.66749 37.6915 5.26171 37.8578 4.8386 37.8578C4.4155 37.8578 4.00972 37.6915 3.71054 37.3955C3.41136 37.0995 3.24329 36.6981 3.24329 36.2795C3.24329 35.8609 3.41136 35.4594 3.71054 35.1634L3.77964 35.0925L15.8229 21.5818C16.2719 21.0785 16.824 20.6754 17.4425 20.3993C18.061 20.1233 18.7318 19.9806 19.4104 19.9807H30.6617C31.3403 19.9806 32.0111 20.1233 32.6296 20.3993C33.2482 20.6754 33.8002 21.0785 34.2492 21.5818L46.2951 35.0925L46.3642 35.1634C46.5123 35.3101 46.6297 35.4842 46.7097 35.6758C46.7897 35.8674 46.8308 36.0727 46.8305 36.28C46.8303 36.4873 46.7887 36.6925 46.7083 36.8839C46.6278 37.0753 46.51 37.2492 46.3616 37.3955Z" fill="white" fill-opacity="0.75"/>
</svg>
