<svg width="31" height="31" viewBox="0 0 31 31" fill="none" xmlns="http://www.w3.org/2000/svg">
<path d="M11.219 11.111C11.4743 10.3209 11.9434 9.61683 12.5743 9.07693C13.2051 8.53703 13.9732 8.18235 14.7933 8.05219C15.6134 7.92203 16.4535 8.02148 17.2205 8.33951C17.9876 8.65754 18.6516 9.18173 19.139 9.854C19.627 10.5253 19.9198 11.3185 19.9852 12.1458C20.0505 12.9732 19.8857 13.8025 19.5091 14.542C19.1325 15.2816 18.5587 15.9026 17.8512 16.3364C17.1436 16.7702 16.3299 16.9998 15.5 17V18.5M15.575 23V23.15H15.425V23H15.575ZM2 24.2V6.8C2 5.12 2 4.28 2.327 3.638C2.615 3.0725 3.0725 2.615 3.638 2.327C4.28 2 5.12 2 6.8 2H24.2C25.88 2 26.72 2 27.3605 2.327C27.926 2.615 28.385 3.0725 28.673 3.638C29 4.2785 29 5.1185 29 6.7955V24.206C29 25.883 29 26.7215 28.673 27.362C28.385 27.9267 27.9255 28.3856 27.3605 28.673C26.72 29 25.8815 29 24.2045 29H6.7955C5.1185 29 4.2785 29 3.638 28.673C3.07354 28.3854 2.61462 27.9265 2.327 27.362C2 26.72 2 25.88 2 24.2Z" stroke="#777777" stroke-width="3.5" stroke-linecap="round" stroke-linejoin="round"/>
</svg>
