<svg width="27" height="32" viewBox="0 0 27 32" fill="none" xmlns="http://www.w3.org/2000/svg">
<path fill-rule="evenodd" clip-rule="evenodd" d="M18.3333 0C18.5522 -4.84295e-09 18.7689 0.0452653 18.9711 0.133211C19.1733 0.221157 19.3571 0.350061 19.5118 0.512563C19.6666 0.675066 19.7894 0.867984 19.8731 1.0803C19.9569 1.29262 20 1.52019 20 1.75C20 1.97981 19.9569 2.20738 19.8731 2.4197C19.7894 2.63202 19.6666 2.82493 19.5118 2.98744C19.3571 3.14994 19.1733 3.27884 18.9711 3.36679C18.7689 3.45474 18.5522 3.5 18.3333 3.5H3.33333V26.25C3.33333 26.7141 3.50893 27.1593 3.82149 27.4874C4.13405 27.8156 4.55797 28 5 28H18.3333C18.7754 28 19.1993 28.1844 19.5118 28.5126C19.8244 28.8408 20 29.2859 20 29.75C20 30.2141 19.8244 30.6593 19.5118 30.9874C19.1993 31.3156 18.7754 31.5 18.3333 31.5H5C3.67392 31.5 2.40215 30.9469 1.46447 29.9623C0.526784 28.9777 0 27.6424 0 26.25V1.75C0 1.28587 0.175595 0.840752 0.488156 0.512563C0.800716 0.184375 1.22464 0 1.66667 0H18.3333ZM21.1783 9.26275C20.9454 9.01819 20.6486 8.85161 20.3255 8.78406C20.0024 8.71651 19.6674 8.75102 19.363 8.88323C19.0586 9.01543 18.7983 9.23941 18.615 9.52686C18.4318 9.81431 18.3337 10.1523 18.3333 10.4983V13.9983H8.33333C7.89131 13.9983 7.46738 14.1826 7.15482 14.5108C6.84226 14.839 6.66667 15.2841 6.66667 15.7483C6.66667 16.2124 6.84226 16.6575 7.15482 16.9857C7.46738 17.3139 7.89131 17.4983 8.33333 17.4983H18.3333V20.9983C18.3334 21.3443 18.4312 21.6826 18.6143 21.9703C18.7975 22.258 19.0577 22.4823 19.3622 22.6147C19.6667 22.7471 20.0018 22.7818 20.3251 22.7143C20.6483 22.6468 20.9452 22.4802 21.1783 22.2355L26.1783 16.9855C26.4908 16.6573 26.6663 16.2123 26.6663 15.7483C26.6663 15.2842 26.4908 14.8392 26.1783 14.511L21.1783 9.26275Z" fill="#CECECE"/>
</svg>
