<svg width="19" height="19" viewBox="0 0 19 19" fill="none" xmlns="http://www.w3.org/2000/svg">
<path d="M1.42876 10.6047C1.19644 10.3116 1 9.88186 1 9.88186V9.11893C1 9.11893 1.19644 8.68836 1.42876 8.39607C2.70051 6.78929 5.48829 4 9.5 4C13.5117 4 16.2995 6.78929 17.5712 8.39529C17.8036 8.68836 18 9.11814 18 9.11814V9.88107C18 9.88107 17.8036 10.3116 17.5712 10.6039C16.2995 12.2107 13.5117 15 9.5 15C5.48829 15 2.70051 12.2107 1.42876 10.6047Z" stroke="white" stroke-width="2" stroke-linecap="round" stroke-linejoin="round"/>
<path d="M9.5 12C10.163 12 10.7989 11.7366 11.2678 11.2678C11.7366 10.7989 12 10.163 12 9.5C12 8.83696 11.7366 8.20107 11.2678 7.73223C10.7989 7.26339 10.163 7 9.5 7C8.83696 7 8.20107 7.26339 7.73223 7.73223C7.26339 8.20107 7 8.83696 7 9.5C7 10.163 7.26339 10.7989 7.73223 11.2678C8.20107 11.7366 8.83696 12 9.5 12Z" stroke="white" stroke-width="2" stroke-linecap="round" stroke-linejoin="round"/>
</svg>
