<svg width="37" height="37" viewBox="0 0 37 37" fill="none" xmlns="http://www.w3.org/2000/svg">
<path d="M21.682 3.96426C21.682 2.8123 20.7714 1.87891 19.6475 1.87891H17.3052C16.1798 1.87891 15.2691 2.8123 15.2691 3.96426C15.2691 4.91409 14.6343 5.72916 13.7701 6.07754C13.6333 6.13451 13.4981 6.19257 13.3645 6.25173C12.5132 6.62969 11.5016 6.51466 10.8442 5.84255C10.4625 5.45219 9.94535 5.23297 9.40615 5.23297C8.86695 5.23297 8.34977 5.45219 7.96806 5.84255L6.31033 7.54173C5.92949 7.93298 5.71562 8.46309 5.71562 9.01577C5.71562 9.56845 5.92949 10.0986 6.31033 10.4898C6.96765 11.1636 7.07988 12.1988 6.70793 13.0731C6.64951 13.2107 6.59338 13.3493 6.53959 13.4888C6.19971 14.3746 5.40451 15.0253 4.47785 15.0253C3.35399 15.0253 2.44336 15.9587 2.44336 17.1107V19.5132C2.44336 20.6651 3.35399 21.5985 4.47785 21.5985C5.40451 21.5985 6.19971 22.2493 6.53959 23.135C6.59517 23.2753 6.65128 23.4138 6.70793 23.5508C7.07827 24.4234 6.96605 25.4603 6.31033 26.134C5.92949 26.5253 5.71562 27.0554 5.71562 27.6081C5.71562 28.1608 5.92949 28.6909 6.31033 29.0821L7.96806 30.7813C8.34977 31.1717 8.86695 31.3909 9.40615 31.3909C9.94535 31.3909 10.4625 31.1717 10.8442 30.7813C11.5016 30.1076 12.5116 29.9925 13.3645 30.3721C13.4981 30.4324 13.6333 30.4904 13.7701 30.5463C14.6343 30.8947 15.2691 31.7098 15.2691 32.6596C15.2691 33.8116 16.1798 34.745 17.3036 34.745H19.6475C20.7714 34.745 21.682 33.8116 21.682 32.6596C21.682 31.7098 22.3169 30.8947 23.181 30.5447C23.3178 30.4899 23.453 30.4329 23.5866 30.3738C24.438 29.9925 25.4496 30.1092 26.1053 30.7813C26.4871 31.1722 27.0046 31.3917 27.5442 31.3917C28.0838 31.3917 28.6013 31.1722 28.9831 30.7813L30.6408 29.0821C31.0217 28.6909 31.2355 28.1608 31.2355 27.6081C31.2355 27.0554 31.0217 26.5253 30.6408 26.134C29.9835 25.4603 29.8713 24.425 30.2416 23.5508C30.3004 23.4138 30.3571 23.2753 30.4116 23.135C30.7514 22.2493 31.5466 21.5985 32.4733 21.5985C33.5972 21.5985 34.5078 20.6651 34.5078 19.5132V17.1123C34.5078 15.9604 33.5972 15.027 32.4733 15.027C31.5466 15.027 30.7514 14.3762 30.41 13.4905C30.3562 13.3509 30.3 13.2123 30.2416 13.0747C29.8729 12.2021 29.9851 11.1652 30.6408 10.4915C31.0217 10.1002 31.2355 9.57009 31.2355 9.01741C31.2355 8.46473 31.0217 7.93462 30.6408 7.54337L28.9831 5.84419C28.6014 5.45384 28.0842 5.23461 27.545 5.23461C27.0058 5.23461 26.4886 5.45384 26.1069 5.84419C25.4496 6.51795 24.4396 6.63298 23.5866 6.25338C23.4524 6.19294 23.3172 6.13487 23.181 6.07919C22.3169 5.72916 21.682 4.91244 21.682 3.96426Z" stroke="#777777" stroke-opacity="0.5" stroke-width="3.5"/>
<path d="M24.8883 18.3115C24.8883 20.0548 24.2126 21.7267 23.01 22.9595C21.8073 24.1922 20.1762 24.8847 18.4754 24.8847C16.7746 24.8847 15.1434 24.1922 13.9408 22.9595C12.7381 21.7267 12.0625 20.0548 12.0625 18.3115C12.0625 16.5682 12.7381 14.8962 13.9408 13.6635C15.1434 12.4308 16.7746 11.7383 18.4754 11.7383C20.1762 11.7383 21.8073 12.4308 23.01 13.6635C24.2126 14.8962 24.8883 16.5682 24.8883 18.3115Z" stroke="#777777" stroke-opacity="0.5" stroke-width="3.5"/>
</svg>
