<svg width="426" height="202" viewBox="0 0 426 202" fill="none" xmlns="http://www.w3.org/2000/svg">
<path d="M167.157 45.7607L152.866 73.6738L87.436 201.799L22.006 73.3973L7.71484 45.7607H38.9795L53.2706 73.6738L87.436 140.666L121.601 73.6738L135.893 45.7607H167.157Z" fill="#860909"/>
<path d="M298.216 123.551C298.216 160.499 268.159 190.557 231.209 190.557C194.259 190.557 164.203 160.499 164.203 123.551C164.203 86.6039 194.262 56.5449 231.209 56.5449C268.157 56.5449 298.216 86.6011 298.216 123.551ZM274.285 123.551C274.285 99.811 254.95 80.4759 231.209 80.4759C207.469 80.4759 188.134 99.811 188.134 123.551C188.134 147.291 207.477 166.626 231.209 166.626C254.941 166.626 274.285 147.289 274.285 123.551Z" fill="#B20000"/>
<path d="M290.918 190.75H291.3L290.918 191.131V190.75ZM425.312 56.7373L373.429 123.934L425.121 190.75H394.872L358.306 143.463L321.74 190.75H291.49L342.992 123.934L291.109 56.7373H321.358L358.115 104.409L394.872 56.7373H425.312ZM424.93 191.131L424.737 190.75H424.93V191.131Z" fill="#B20000"/>
<path d="M85.7131 196.898L50.9172 46.5757C50.8814 46.3546 50.7716 46.1521 50.6059 46.0014C50.4401 45.8508 50.2282 45.7607 50.0047 45.7461H1.66148C0.895492 45.7461 0.45304 46.7444 0.873368 47.4938" fill="#B20000"/>
<path d="M89.0482 6.62292L106.193 18.6299L86.5373 46.7061H80.8601L67.5313 37.3677L89.0482 6.62292ZM88.1108 0.0110636C87.9048 0.0110264 87.7019 0.0603366 87.519 0.154861C87.3372 0.251648 87.1809 0.389976 87.0627 0.558594L61.1407 37.5751C61.0415 37.7113 60.9718 37.8667 60.936 38.0313C60.9015 38.1973 60.9015 38.3686 60.936 38.5346C60.9636 38.7014 61.0245 38.8608 61.1153 39.0034C61.2061 39.146 61.3248 39.2687 61.4642 39.3642L79.2618 51.8081H89.2169L112.578 18.4225C112.676 18.2849 112.746 18.1292 112.783 17.9644C112.82 17.7997 112.823 17.6292 112.794 17.4629C112.764 17.2965 112.702 17.1375 112.611 16.9952C112.52 16.8528 112.402 16.7298 112.263 16.6334L88.8408 0.232289C88.6265 0.0829574 88.372 0.00197657 88.1108 0V0.0110636Z" fill="#B20000"/>
<path d="M114.794 45.7471H58.9903C58.8141 45.7373 58.6412 45.7974 58.5091 45.9145C58.377 46.0315 58.2965 46.196 58.2852 46.3721V51.2252C58.2965 51.4013 58.377 51.5658 58.5091 51.6828C58.6412 51.7999 58.8141 51.86 58.9903 51.8502H114.794C114.97 51.86 115.143 51.7998 115.274 51.6827C115.406 51.5656 115.486 51.4011 115.497 51.2252V46.3721C115.486 46.1962 115.406 46.0318 115.274 45.9147C115.143 45.7975 114.97 45.7373 114.794 45.7471Z" fill="#860909"/>
<path d="M87.5143 201.821L50.4315 46.4853C50.4018 46.293 50.3076 46.1165 50.1644 45.9849C50.0212 45.8532 49.8374 45.7742 49.6434 45.7607H1.50481C0.854957 45.7607 0.465046 46.6374 0.824537 47.2955L87.3041 201.934C87.376 202.07 87.5475 201.976 87.5143 201.821Z" fill="#B20000"/>
<path d="M87.2432 201.821L123.723 46.4853C123.751 46.2945 123.843 46.1189 123.983 45.9872C124.124 45.8556 124.305 45.7757 124.497 45.7607H171.853C172.495 45.7607 172.879 46.6374 172.525 47.2955L87.4589 201.934C87.3787 202.07 87.2072 201.976 87.2432 201.821Z" fill="#B20000"/>
<path d="M86.0384 8.71852L86.7712 16.0079L88.0599 28.8389L75.5579 32.0163L68.4593 33.822L77.2475 21.2703L86.0357 8.71852M88.2479 0.262206L74.7615 19.5254L61.2695 38.7802L76.3101 34.9558L91.3478 31.1341L89.7965 15.6954L88.2451 0.253906L88.2479 0.262206Z" fill="#B20000"/>
</svg>
