<svg width="25" height="25" viewBox="0 0 25 25" fill="none" xmlns="http://www.w3.org/2000/svg">
<path d="M9.0625 16.082C10.0365 16.8039 11.2224 17.2279 12.5 17.2279C13.7776 17.2279 14.9635 16.8039 15.9375 16.082" stroke="#CECECE" stroke-width="2" stroke-linecap="round"/>
<path d="M15.9368 11.5C16.5697 11.5 17.0827 10.7305 17.0827 9.78125C17.0827 8.83201 16.5697 8.0625 15.9368 8.0625C15.304 8.0625 14.791 8.83201 14.791 9.78125C14.791 10.7305 15.304 11.5 15.9368 11.5Z" fill="#CECECE"/>
<path d="M9.06185 11.5C9.69468 11.5 10.2077 10.7305 10.2077 9.78125C10.2077 8.83201 9.69468 8.0625 9.06185 8.0625C8.42902 8.0625 7.91602 8.83201 7.91602 9.78125C7.91602 10.7305 8.42902 11.5 9.06185 11.5Z" fill="#CECECE"/>
<path d="M1 12.5C1 7.5503 1 5.07545 2.6836 3.5372C4.3695 2 7.0789 2 12.5 2C17.9211 2 20.6316 2 22.3152 3.5372C24 5.0765 24 7.5503 24 12.5C24 17.4497 24 19.9245 22.3152 21.4617C20.6328 23 17.9211 23 12.5 23C7.0789 23 4.36835 23 2.6836 21.4617C1 19.9256 1 17.4497 1 12.5Z" stroke="#CECECE" stroke-width="2"/>
</svg>
