<svg width="25" height="25" viewBox="0 0 25 25" fill="none" xmlns="http://www.w3.org/2000/svg">
<g clip-path="url(#clip0_2263_6858)">
<path d="M12.5 12.7238C12.0243 12.7186 11.5583 12.8519 11.1648 13.1059C10.7712 13.3599 10.469 13.7223 10.2988 14.1445C10.1286 14.5666 10.0985 15.0282 10.2127 15.4671C10.3269 15.9059 10.5799 16.301 10.9375 16.5991V18.663C10.9375 19.0568 11.1021 19.4345 11.3951 19.7129C11.6882 19.9914 12.0856 20.1478 12.5 20.1478C12.9144 20.1478 13.3118 19.9914 13.6049 19.7129C13.8979 19.4345 14.0625 19.0568 14.0625 18.663V16.5991C14.4201 16.301 14.6731 15.9059 14.7873 15.4671C14.9015 15.0282 14.8714 14.5666 14.7012 14.1445C14.531 13.7223 14.2288 13.3599 13.8352 13.1059C13.4417 12.8519 12.9757 12.7186 12.5 12.7238ZM20.3125 7.91889V7.42396C20.3125 5.455 19.4894 3.56669 18.0243 2.17443C16.5591 0.782165 14.572 0 12.5 0C10.428 0 8.44086 0.782165 6.97573 2.17443C5.5106 3.56669 4.6875 5.455 4.6875 7.42396V7.91889C3.4443 7.91889 1.87908 8.16464 1 9C0.120923 9.83536 0 11.1919 0 12.3733V20.5456C0 21.727 0.120923 23.1646 1 24C1.87908 24.8354 3.4443 25 4.6875 25H20.3125C21.5557 25 23.1209 24.8354 24 24C24.8791 23.1646 25 21.727 25 20.5456V12.3733C25 11.1919 24.8791 9.83536 24 9C23.1209 8.16464 21.5557 7.91889 20.3125 7.91889ZM6.8125 7.42396C6.8125 6.24258 7.62092 4.33536 8.5 3.5C9.37908 2.66464 11.2568 1.96958 12.5 1.96958C13.7432 1.96958 15.6209 2.66464 16.5 3.5C17.3791 4.33536 18.1875 6.24258 18.1875 7.42396V7.91889H6.8125V7.42396ZM22.875 21.5456C22.875 21.9394 22.7104 22.3171 22.4174 22.5955C22.1243 22.874 21.7269 23.0304 21.3125 23.0304H3.6875C3.2731 23.0304 2.87567 22.874 2.58265 22.5955C2.28962 22.3171 2.125 21.9394 2.125 21.5456V11.3733C2.125 10.9795 2.28962 10.6018 2.58265 10.3234C2.87567 10.0449 3.2731 9.88847 3.6875 9.88847H21.3125C21.7269 9.88847 22.1243 10.0449 22.4174 10.3234C22.7104 10.6018 22.875 10.9795 22.875 11.3733V21.5456Z" fill="#CECECE"/>
</g>
<defs>
<clipPath id="clip0_2263_6858">
<rect width="25" height="25" fill="white"/>
</clipPath>
</defs>
</svg>
