<svg width="66" height="66" viewBox="0 0 66 66" fill="none" xmlns="http://www.w3.org/2000/svg">
<path d="M33 0.5C37.5096 0.5 41.7417 1.35734 45.6904 3.07617C49.628 4.79014 53.0585 7.10583 55.9775 10.0225C58.8966 12.9391 61.2128 16.3697 62.9268 20.3096C64.6455 24.2606 65.5024 28.4927 65.5 33C65.4976 37.507 64.6406 41.7386 62.9268 45.6895C61.2175 49.6297 58.9015 53.0607 55.9775 55.9775C53.054 58.8938 49.6231 61.2104 45.6904 62.9268C41.7462 64.6481 37.5143 65.5038 33 65.499C25.4235 65.499 18.7064 63.1978 12.8682 58.5947C7.03306 53.994 3.23738 48.1042 1.49219 40.9404V40.9395C1.21738 39.8959 1.43516 38.9225 2.12109 38.0664C2.80113 37.2179 3.72283 36.7285 4.84863 36.5928L5.0459 36.5723C6.02477 36.4874 6.93259 36.6927 7.75098 37.1963C8.57924 37.706 9.1608 38.4545 9.50098 39.4121L9.56641 39.6064L9.56934 39.6162L9.57227 39.627C10.9655 44.8515 13.8345 49.1125 18.1914 52.4238C22.5481 55.7349 27.4786 57.3887 33 57.3887C39.803 57.3887 45.5575 55.0261 50.293 50.293C55.0283 45.56 57.391 39.8053 57.3887 33C57.3863 26.1946 55.0235 20.4415 50.293 15.7109C45.7101 11.1281 40.1663 8.76554 33.6348 8.61816L33 8.61133C28.9919 8.61133 25.2506 9.53941 21.7686 11.3965C18.5702 13.1023 15.8382 15.3956 13.5664 18.2773H18.7773C19.9108 18.2773 20.8852 18.6675 21.666 19.4482C22.447 20.2292 22.8357 21.203 22.833 22.335C22.8302 23.4654 22.4411 24.4382 21.6641 25.2207C20.8853 26.0049 19.9114 26.3926 18.7773 26.3877V26.3887H4.55566C3.42207 26.3887 2.44866 25.9992 1.66992 25.2178C0.892278 24.4374 0.50277 23.4654 0.5 22.335V8.11133C0.5 6.97781 0.88956 6.0043 1.6709 5.22559C2.45136 4.44784 3.42404 4.05833 4.55469 4.05566C5.68698 4.05307 6.66148 4.4428 7.44434 5.22559C8.22685 6.0081 8.61617 6.98137 8.61133 8.11133V11.5322C11.5069 8.19384 14.9577 5.56684 18.9648 3.65918C23.3891 1.55304 28.0694 0.5 33 0.5Z" fill="#B20000" stroke="#B20000"/>
</svg>
