<svg width="33" height="34" viewBox="0 0 33 34" fill="none" xmlns="http://www.w3.org/2000/svg">
<path d="M19.3148 3.8819C19.3148 2.84233 18.4952 2 17.4838 2H15.3757C14.3628 2 13.5432 2.84233 13.5432 3.8819C13.5432 4.73906 12.9718 5.47462 12.1941 5.78901C12.071 5.84042 11.9493 5.89282 11.829 5.94621C11.0629 6.2873 10.1524 6.18349 9.56079 5.57695C9.21726 5.22467 8.75179 5.02684 8.26651 5.02684C7.78123 5.02684 7.31577 5.22467 6.97223 5.57695L5.48027 7.11035C5.13752 7.46343 4.94503 7.94182 4.94503 8.44058C4.94503 8.93934 5.13752 9.41774 5.48027 9.77082C6.07186 10.3788 6.17287 11.3131 5.83811 12.1021C5.78553 12.2262 5.73502 12.3513 5.68661 12.4773C5.38071 13.2766 4.66504 13.8638 3.83104 13.8638C2.81957 13.8638 2 14.7062 2 15.7457V17.9139C2 18.9534 2.81957 19.7958 3.83104 19.7958C4.66504 19.7958 5.38071 20.383 5.68661 21.1823C5.73663 21.3089 5.78713 21.434 5.83811 21.5575C6.17142 22.345 6.07042 23.2808 5.48027 23.8888C5.13752 24.2419 4.94503 24.7203 4.94503 25.219C4.94503 25.7178 5.13752 26.1962 5.48027 26.5493L6.97223 28.0827C7.31577 28.4349 7.78123 28.6328 8.26651 28.6328C8.75179 28.6328 9.21726 28.4349 9.56079 28.0827C10.1524 27.4746 11.0614 27.3708 11.829 27.7134C11.9493 27.7678 12.071 27.8202 12.1941 27.8706C12.9718 28.185 13.5432 28.9205 13.5432 29.7777C13.5432 30.8173 14.3628 31.6596 15.3742 31.6596H17.4838C18.4952 31.6596 19.3148 30.8173 19.3148 29.7777C19.3148 28.9205 19.8862 28.185 20.6639 27.8691C20.787 27.8197 20.9087 27.7683 21.029 27.7149C21.7951 27.3708 22.7056 27.4761 23.2958 28.0827C23.6394 28.4354 24.1051 28.6335 24.5908 28.6335C25.0764 28.6335 25.5422 28.4354 25.8858 28.0827L27.3777 26.5493C27.7205 26.1962 27.913 25.7178 27.913 25.219C27.913 24.7203 27.7205 24.2419 27.3777 23.8888C26.7861 23.2808 26.6851 22.3465 27.0184 21.5575C27.0713 21.434 27.1223 21.3089 27.1714 21.1823C27.4773 20.383 28.193 19.7958 29.027 19.7958C30.0384 19.7958 30.858 18.9534 30.858 17.9139V15.7472C30.858 14.7077 30.0384 13.8653 29.027 13.8653C28.193 13.8653 27.4773 13.2781 27.1699 12.4787C27.1215 12.3528 27.071 12.2277 27.0184 12.1035C26.6866 11.3161 26.7876 10.3803 27.3777 9.7723C27.7205 9.41922 27.913 8.94083 27.913 8.44207C27.913 7.94331 27.7205 7.46491 27.3777 7.11183L25.8858 5.57843C25.5422 5.22616 25.0768 5.02832 24.5915 5.02832C24.1062 5.02832 23.6407 5.22616 23.2972 5.57843C22.7056 6.18645 21.7966 6.29026 21.029 5.94769C20.9082 5.89315 20.7865 5.84075 20.6639 5.7905C19.8862 5.47462 19.3148 4.73758 19.3148 3.8819Z" stroke="#777777" stroke-width="3.5"/>
<path d="M22.1994 16.8304C22.1994 18.4036 21.5914 19.9124 20.509 21.0249C19.4266 22.1373 17.9586 22.7623 16.4278 22.7623C14.8971 22.7623 13.4291 22.1373 12.3467 21.0249C11.2643 19.9124 10.6563 18.4036 10.6562 16.8304C10.6563 15.2571 11.2643 13.7483 12.3467 12.6359C13.4291 11.5234 14.8971 10.8984 16.4278 10.8984C17.9586 10.8984 19.4266 11.5234 20.509 12.6359C21.5914 13.7483 22.1994 15.2571 22.1994 16.8304Z" stroke="#777777" stroke-width="3.5"/>
</svg>
