<svg width="69" height="69" viewBox="0 0 69 69" fill="none" xmlns="http://www.w3.org/2000/svg">
<path d="M5.67569 39.4167C4.84606 38.3776 4.14453 36.8539 4.14453 36.8539V34.1489C4.14453 34.1489 4.84606 32.6224 5.67569 31.5861C10.2173 25.8893 20.1729 16 34.4994 16C48.8258 16 58.7814 25.8893 63.323 31.5833C64.1527 32.6224 64.8542 34.1461 64.8542 34.1461V36.8511C64.8542 36.8511 64.1527 38.3776 63.323 39.4139C58.7814 45.1107 48.8258 55 34.4994 55C20.1729 55 10.2173 45.1107 5.67569 39.4167Z" stroke="#B20000" stroke-width="6.5" stroke-linecap="round" stroke-linejoin="round"/>
<path d="M34.5 45C37.0196 45 39.4359 43.9991 41.2175 42.2175C42.9991 40.4359 44 38.0196 44 35.5C44 32.9804 42.9991 30.5641 41.2175 28.7825C39.4359 27.0009 37.0196 26 34.5 26C31.9804 26 29.5641 27.0009 27.7825 28.7825C26.0009 30.5641 25 32.9804 25 35.5C25 38.0196 26.0009 40.4359 27.7825 42.2175C29.5641 43.9991 31.9804 45 34.5 45Z" stroke="#B20000" stroke-width="6.5" stroke-linecap="round" stroke-linejoin="round"/>
</svg>
