<svg width="52" height="69" viewBox="0 0 52 69" fill="none" xmlns="http://www.w3.org/2000/svg">
<path d="M0.755859 68.5V23H35.8348V16.5C35.8348 13.7917 34.9047 11.4896 33.0444 9.59375C31.1842 7.69792 28.9253 6.75 26.2678 6.75C23.6103 6.75 21.3514 7.69792 19.4912 9.59375C17.6309 11.4896 16.7008 13.7917 16.7008 16.5H10.3228C10.3228 12.0042 11.878 8.17242 14.9883 5.00475C18.0987 1.83709 21.8585 0.252169 26.2678 0.250002C30.6771 0.247836 34.438 1.83275 37.5505 5.00475C40.6629 8.17675 42.217 12.0085 42.2128 16.5V23H51.7798V68.5H0.755859ZM7.13385 62H45.4018V29.5H7.13385V62ZM26.2678 52.25C28.0218 52.25 29.5238 51.6141 30.7739 50.3423C32.0239 49.0704 32.6479 47.5397 32.6458 45.75C32.6437 43.9603 32.0197 42.4307 30.7739 41.161C29.528 39.8913 28.026 39.2543 26.2678 39.25C24.5096 39.2457 23.0087 39.8827 21.7649 41.161C20.5212 42.4393 19.8962 43.969 19.8898 45.75C19.8834 47.531 20.5085 49.0618 21.7649 50.3423C23.0214 51.6228 24.5224 52.2587 26.2678 52.25Z" fill="white"/>
</svg>
