<svg width="62" height="62" viewBox="0 0 62 62" fill="none" xmlns="http://www.w3.org/2000/svg">
<path d="M22.3846 54.6923H3V52.3575C3.02761 49.7533 3.57856 47.1812 4.62009 44.7941C5.66162 42.4071 7.17247 40.2538 9.06281 38.4623C10.9532 36.6708 13.1844 35.2777 15.6239 34.3657C18.0634 33.4538 20.6614 33.0417 23.2634 33.1538C25.8414 33.2734 28.3696 33.9065 30.6997 35.0161C33.0298 36.1256 35.1149 37.6893 36.8326 39.6154M59 37.4615L41.7692 59L33.1538 52.5385M22.3846 24.5385C25.2408 24.5385 27.98 23.4039 29.9996 21.3842C32.0192 19.3646 33.1538 16.6254 33.1538 13.7692C33.1538 10.9131 32.0192 8.17386 29.9996 6.15423C27.98 4.13461 25.2408 3 22.3846 3C19.5284 3 16.7892 4.13461 14.7696 6.15423C12.75 8.17386 11.6154 10.9131 11.6154 13.7692C11.6154 16.6254 12.75 19.3646 14.7696 21.3842C16.7892 23.4039 19.5284 24.5385 22.3846 24.5385Z" stroke="#B20000" stroke-width="6" stroke-linecap="round" stroke-linejoin="round"/>
</svg>
