<svg width="63" height="63" viewBox="0 0 63 63" fill="none" xmlns="http://www.w3.org/2000/svg">
<path d="M47.375 33.8785L55.25 41.7535V52.2535C55.25 53.6459 54.6969 54.9813 53.7123 55.9658C52.7277 56.9504 51.3924 57.5035 50 57.5035H13.25C11.8576 57.5035 10.5223 56.9504 9.53769 55.9658C8.55312 54.9813 8 53.6459 8 52.2535V41.7535L15.875 33.8785H18.0538L23.3038 39.1285H17.9225L13.25 44.3785H50L45.3537 39.1285H40.34L45.59 33.8785H47.375ZM50 52.2535V49.6285H13.25V52.2535H50ZM29.8925 39.1285L16.8987 26.1873C16.6554 25.9444 16.4623 25.656 16.3306 25.3384C16.1989 25.0209 16.1311 24.6804 16.1311 24.3366C16.1311 23.9929 16.1989 23.6524 16.3306 23.3349C16.4623 23.0173 16.6554 22.7289 16.8987 22.486L33.62 5.76477C33.8603 5.52039 34.1473 5.32677 34.4639 5.19541C34.7805 5.06404 35.1203 4.99762 35.4631 5.00007C35.8058 5.00251 36.1446 5.07379 36.4593 5.20966C36.774 5.34553 37.0582 5.54323 37.295 5.79102L50.2887 18.7848C51.3125 19.8085 51.3125 21.4623 50.2887 22.486L33.5938 39.1285C33.3578 39.3838 33.0716 39.5875 32.7531 39.7268C32.4346 39.8662 32.0907 39.9381 31.7431 39.9381C31.3955 39.9381 31.0516 39.8662 30.7331 39.7268C30.4147 39.5875 30.1284 39.3838 29.8925 39.1285ZM35.4575 11.3298L22.4375 24.3235L31.7563 33.616L44.75 20.6223L35.4575 11.3298Z" fill="#860909"/>
</svg>
